<svg id="Layer_1" enable-background="new 0 0 512.002 512.002" height="512" viewBox="0 0 512.002 512.002" width="512" xmlns="http://www.w3.org/2000/svg"><g><g clip-rule="evenodd" fill-rule="evenodd"><g><path d="m306.866 454.981 39.81 1.668c12.6.528 21.716 11.282 21.716 23.616 0 12.478-11.149 22.239-23.616 21.716l-16.949-.71-22.845-.957c-12.6-.528-21.716-11.282-21.716-23.616 0-12.471 11.141-22.23 23.6-21.717z" fill="#ffdcd5"/><path d="m346.676 456.65-39.81-1.668-15.217-.637c-13.081-.548-22.545-11.712-22.545-24.517 0-12.463 10.715-22.316 23.053-22.561.485.02.974.025 1.464.016 23.987 1.005 47.974 2.011 71.96 3.016 13.081.548 22.545 11.712 22.545 24.517 0 12.953-11.575 23.087-24.517 22.545z" fill="#ffdcd5"/><path d="m106.001 305.346h66.477v188.085h-66.477z" fill="#ff9346"/><path d="m365.543 356.975 15.46-.165c13.495-.144 25.306 10.585 24.993 24.078-.31 13.338-10.439 24.74-24.078 24.994-25.01.466-63.285.934-88.296 1.4-.49-.021-.978-.026-1.464-.016-12.338.245-23.053 10.098-23.053 22.561 0 12.805 9.464 23.969 22.545 24.517l15.217.637c-12.46-.513-23.6 9.245-23.6 21.717 0 12.334 9.116 23.089 21.716 23.616l22.845.957h-67.034c-29.326 0-58.653-16.176-87.979-16.299h-.336v-171.17h.336c52.558-.203 41.496-29.896 94.052-49.717 16.732-6.31 31.491 3.342 39.595 7.5 24.786 14.31 23.468 24.301 20.633 38.742l37.566-.619c12.999-.214 24.376 10.196 24.075 23.193-.299 12.847-10.055 23.829-23.193 24.074z" fill="#ffdcd5"/></g><path d="m324.66 190v-160h-218.659l59.213 80-59.213 80z" fill="#ff5d7d"/><path d="m327.157 310.005h19.422l18.081-.298v-279.707c0-11-9-20-20-20s-20 9-20 20v160 96.369c5.316 7.582 4.23 14.776 2.497 23.636z" fill="#c7d9da"/></g><g><path d="m415.992 381.121c.206-8.886-3.202-17.346-9.596-23.821-3.415-3.458-7.511-6.147-11.973-7.937 2.625-4.804 4.172-10.329 4.31-16.231.202-8.712-3.15-16.997-9.439-23.328-4.084-4.112-9.147-7.1-14.633-8.717v-271.087c0-16.542-13.458-30-30-30-13.036 0-24.151 8.361-28.279 20h-210.381c-3.776 0-7.23 2.127-8.93 5.5-1.7 3.372-1.354 7.414.892 10.449l54.81 74.051-54.81 74.051c-2.247 3.035-2.592 7.077-.892 10.449 1.7 3.373 5.154 5.5 8.93 5.5h208.659v64.84c-1.033-.636-2.09-1.274-3.2-1.915-.143-.083-.289-.162-.436-.237-.771-.396-1.605-.845-2.5-1.324-9.051-4.861-25.9-13.912-45.189-6.635-25.128 9.477-37.133 21.302-46.78 30.804-9.576 9.433-16.362 16.102-34.278 17.826-.922-4.57-4.959-8.013-9.801-8.013h-66.477c-5.523 0-10 4.478-10 10v188.085c0 5.522 4.477 10 10 10h66.477c4.78 0 8.77-3.356 9.759-7.839 10.261 1.23 20.763 4.132 31.73 7.168 15.117 4.186 30.748 8.513 46.826 8.513h66.836l16.728.701c.453.02.906.028 1.358.028 8.486 0 16.782-3.322 22.944-9.231 6.276-6.019 9.733-14.011 9.733-22.505 0-5.229-1.147-10.181-3.2-14.595 4.799-1.581 9.248-4.221 12.948-7.769 6.44-6.176 9.986-14.375 9.986-23.087 0-7.675-2.408-14.76-6.497-20.492 13.887-4.372 24-17.475 24.365-33.202zm-37.254-48.453c-.183 7.888-6.061 14.173-13.382 14.31-.009 0-.018.002-.027.002-.011 0-.021-.001-.032-.001l-30.909.757c-.692-6.475-.987-15.02 1.05-27.545l29.386-.484c3.825-.077 7.57 1.464 10.279 4.192 2.419 2.434 3.71 5.548 3.635 8.769zm-34.077-312.668c5.514 0 10 4.486 10 10v269.87l-16.115.265c.125-3.993-.316-8.068-1.858-12.247-.551-1.493-1.232-2.943-2.026-4.367v-253.521c-.002-5.514 4.485-10 9.999-10zm-218.817 160 47.408-64.051c2.617-3.534 2.617-8.364 0-11.898l-47.408-64.051h188.816v140zm93.459 303.484c-11.962-3.312-24.25-6.706-36.825-7.981v-31.119c0-5.522-4.477-10-10-10s-10 4.478-10 10v39.046h-46.477v-168.084h46.477v39.039c0 5.522 4.477 10 10 10s10-4.478 10-10v-30.979c26.27-2.126 36.919-12.598 48.114-23.624 9.162-9.024 18.635-18.356 39.802-26.34 10.784-4.065 21.121 1.487 28.669 5.542.924.496 1.792.961 2.6 1.379 9.354 5.425 14.674 10.152 16.26 14.451 1.268 3.435.542 7.59-.849 14.638-.341 1.727-.693 3.516-1.021 5.381-3.624 20.587-1.922 32.885-.796 41.023.238 1.723.449 3.245.559 4.521-.663.495-2.26 1.243-4.682 1.451-4.408.386-9.011-1.178-12.31-4.166-8.438-7.643-8.936-13.033-9.761-21.965-.326-3.522-.694-7.515-1.63-11.858-1.164-5.399-6.482-8.838-11.882-7.67-5.399 1.162-8.833 6.482-7.67 11.881.683 3.169.966 6.238 1.266 9.486.496 5.375 1.032 11.122 3.417 17.207-7.703 21.545-33.141 34.646-49.074 34.646-5.523 0-10 4.478-10 10s4.477 10 10 10c11.049 0 25.235-4.158 38.056-12.214 1.63 3.568 3.914 6.878 6.807 9.784.087.087.179.168.266.254-6.136 6.119-9.515 14.12-9.515 22.614 0 13.578 7.523 25.322 18.596 30.966-2.893 4.786-4.434 10.234-4.434 15.905 0 5.223 1.149 10.164 3.197 14.574h-15.671c-13.36 0-27.023-3.783-41.489-7.788zm135.514 4.851c-2.578 2.472-6.091 3.809-9.622 3.656l-39.795-1.668c-6.804-.285-12.134-6.27-12.134-13.625 0-2.99 1.269-5.854 3.572-8.065 2.448-2.349 5.736-3.671 9.093-3.671.171 0 .343.004.514.011h.002l39.81 1.669h.001c6.804.285 12.134 6.27 12.134 13.624 0 2.992-1.27 5.858-3.575 8.069zm19.48-44.867c-2.751 2.638-6.498 4.061-10.268 3.901l-16.881-.708c-.018-.001-.034-.001-.052-.002 0 0 0 0-.001 0l-39.81-1.669-15.217-.638c-7.269-.305-12.963-6.685-12.963-14.525 0-3.212 1.36-6.284 3.83-8.653 2.654-2.544 6.227-3.947 9.87-3.897.121.001.242.009.364.009.092 0 .185-.002.277-.003l71.718 3.005c7.269.305 12.963 6.686 12.963 14.526-.001 3.212-1.361 6.286-3.83 8.654zm7.434-47.584c-12.518.233-28.638.472-44.229.701-15.488.229-31.501.465-43.982.698-.079-.002-.157-.002-.236-.004-3.996.02-7.911-1.572-10.757-4.43-2.597-2.609-3.983-5.951-3.902-9.413.001-.077.002-.154.002-.231v-.386c2.699-3.039 5.158-6.331 7.306-9.871 7.326 6.389 15.948 8.931 23.765 8.931 5.212 0 10.066-1.126 13.933-2.983 5.313-2.552 9.088-6.491 10.937-11.158l31.183-.763 15.357-.164h.161c4.076 0 8.039 1.65 10.896 4.544 2.551 2.583 3.912 5.887 3.832 9.303-.195 8.392-6.461 15.08-14.266 15.226z"/><path d="m172.478 389.385c-5.523 0-10 4.481-10 10.004s4.477 10 10 10 10-4.478 10-10v-.008c0-5.523-4.477-9.996-10-9.996z"/></g></g></svg>