<?xml version="1.0" encoding="iso-8859-1"?>
<!-- Generator: Adobe Illustrator 17.1.0, SVG Export Plug-In . SVG Version: 6.00 Build 0)  -->
<!DOCTYPE svg PUBLIC "-//W3C//DTD SVG 1.1//EN" "http://www.w3.org/Graphics/SVG/1.1/DTD/svg11.dtd">
<svg version="1.1" id="Capa_1" xmlns="http://www.w3.org/2000/svg" xmlns:xlink="http://www.w3.org/1999/xlink" x="0px" y="0px"
	 viewBox="0 0 295.902 295.902" fill="green"> xml:space="preserve">
<g>
	<path d="M147.617,219.668c-10.975,0-20.999-1.502-31.999-4.398v71.313l23.439-8.075c5.194-1.811,13.647-1.783,18.829,0.06
		l23.732,8.45v-72.327C170.618,217.969,159.305,219.668,147.617,219.668z"/>
	<path d="M80.618,198.689v89.978c0,5.5,4.459,8.52,9.653,6.709l10.347-3.59v-81.88C93.618,206.849,87.618,203.098,80.618,198.689z"
		/>
	<path d="M196.618,292.339l8.392,2.978c5.182,1.843,9.608-1.149,9.608-6.649v-89.978c-5,3.987-11,7.433-18,10.317V292.339z"/>
	<path d="M147.95,204.668c56.518,0,102.334-45.816,102.334-102.334S204.467,0,147.95,0C91.434,0,45.618,45.816,45.618,102.334
		S91.434,204.668,147.95,204.668z M147.95,20.707c45.009,0,81.627,36.617,81.627,81.627s-36.618,81.627-81.627,81.627
		c-45.008,0-81.625-36.617-81.625-81.627S102.942,20.707,147.95,20.707z"/>
	<path d="M147.95,168.961c36.738,0,66.627-29.889,66.627-66.627s-29.889-66.627-66.627-66.627
		c-36.736,0-66.625,29.889-66.625,66.627S111.214,168.961,147.95,168.961z M110.484,92.284c0.882-2.715,3.228-4.694,6.053-5.107
		l16.826-2.451l7.53-15.245c1.265-2.559,3.871-4.179,6.725-4.179s5.46,1.62,6.725,4.179l7.53,15.245l16.826,2.451
		c2.825,0.412,5.171,2.392,6.053,5.107c0.881,2.715,0.145,5.694-1.899,7.687l-12.175,11.864l2.877,16.762
		c0.483,2.814-0.673,5.657-2.982,7.336c-1.307,0.949-2.855,1.433-4.41,1.433c-1.193,0-2.392-0.284-3.489-0.861l-15.055-7.915
		l-15.055,7.915c-2.529,1.327-5.589,1.106-7.899-0.571c-2.31-1.679-3.466-4.522-2.982-7.336l2.877-16.762l-12.175-11.864
		C110.34,97.979,109.603,94.999,110.484,92.284z"/>
</g>
<g>
</g>
<g>
</g>
<g>
</g>
<g>
</g>
<g>
</g>
<g>
</g>
<g>
</g>
<g>
</g>
<g>
</g>
<g>
</g>
<g>
</g>
<g>
</g>
<g>
</g>
<g>
</g>
<g>
</g>
</svg>
