<?xml version="1.0" encoding="iso-8859-1"?>
<!-- Generator: Adobe Illustrator 17.1.0, SVG Export Plug-In . SVG Version: 6.00 Build 0)  -->
<!DOCTYPE svg PUBLIC "-//W3C//DTD SVG 1.1//EN" "http://www.w3.org/Graphics/SVG/1.1/DTD/svg11.dtd">
<svg version="1.1" id="Capa_1" xmlns="http://www.w3.org/2000/svg" xmlns:xlink="http://www.w3.org/1999/xlink" x="0px" y="0px"
	 viewBox="0 0 298.449 298.449" fill="green"> xml:space="preserve">
<g>
	<path d="M121.24,220.753c-3.448,0-6.754-0.506-9.825-1.503c-10.507-3.412-16.798-11.615-21.853-18.206
		c-2.258-2.944-4.593-5.989-6.376-7.287c-1.847-1.344-5.511-2.649-9.056-3.913c-2.676-0.953-5.577-1.994-8.493-3.3l-23.724,82.877
		c-1.514,5.288,1.651,8.685,7.032,7.549l29.481-6.222c5.381-1.136,13.002,1.08,16.936,4.924l20.992,20.518
		c3.934,3.844,8.39,2.663,9.903-2.625l22.421-78.327c-2.487,0.138-6.049,1.171-9.517,2.184
		C133.816,218.982,127.757,220.753,121.24,220.753z"/>
	<path d="M215.26,193.76c-1.782,1.297-4.117,4.341-6.376,7.285c-5.055,6.592-11.346,14.794-21.853,18.205
		c-3.071,0.997-6.377,1.503-9.825,1.503c-6.517,0-12.576-1.771-17.923-3.332c-3.466-1.013-7.026-2.045-9.514-2.184l22.421,78.327
		c1.514,5.288,5.97,6.469,9.903,2.625l20.992-20.518c3.934-3.844,11.555-6.06,16.936-4.924l29.481,6.222
		c5.381,1.136,8.546-2.261,7.032-7.549l-23.724-82.876c-2.916,1.307-5.818,2.347-8.495,3.301
		C220.772,191.108,217.107,192.415,215.26,193.76z"/>
	<path d="M256.558,102.877c0-11.039-11.504-20.127-14.738-30.088c-3.352-10.323,0.498-24.414-5.756-33.007
		c-6.316-8.68-20.949-9.343-29.629-15.659c-8.593-6.254-13.711-20.001-24.035-23.354c-1.674-0.544-3.41-0.77-5.192-0.77
		c-8.828,0-18.799,5.543-27.983,5.543C140.039,5.543,130.069,0,121.241,0c-1.782,0-3.519,0.227-5.192,0.77
		c-10.324,3.352-15.441,17.1-24.035,23.354c-8.679,6.316-23.312,6.979-29.628,15.658c-6.254,8.594-2.403,22.684-5.756,33.008
		c-3.234,9.961-14.738,19.049-14.738,30.088c0,11.039,11.504,20.126,14.738,30.087c3.351,10.324-0.498,24.414,5.756,33.008
		c6.316,8.679,20.949,9.341,29.628,15.657c8.593,6.254,13.711,20.002,24.034,23.354c1.674,0.544,3.41,0.77,5.192,0.77
		c8.828,0,18.799-5.543,27.983-5.543c9.185,0,19.154,5.543,27.982,5.543c1.783,0,3.521-0.227,5.193-0.77
		c10.323-3.352,15.441-17.1,24.034-23.352c8.68-6.316,23.313-6.98,29.629-15.658c6.254-8.593,2.404-22.684,5.757-33.008
		C245.054,123.004,256.558,113.916,256.558,102.877z M226.208,81.977c2.53,1.706,2.092,6.784-0.978,11.342
		c-2.022,2.997-4.679,5.016-6.982,5.563c-0.084,0.02-0.164,0.044-0.25,0.06c-0.087,0.017-0.168,0.024-0.255,0.038
		c-2.339,0.356-5.559-0.52-8.56-2.538c-4.557-3.071-6.867-7.614-5.161-10.146c1.708-2.532,6.784-2.093,11.341,0.979
		c0.145,0.099,0.281,0.201,0.422,0.303c0.093-0.146,0.182-0.294,0.278-0.438C219.132,82.583,223.675,80.271,226.208,81.977z
		 M194.063,63.592c0.673-2.98,5.563-4.413,10.923-3.206c0.172,0.039,0.337,0.085,0.502,0.129c0.035-0.169,0.063-0.339,0.101-0.508
		c1.206-5.359,4.601-9.163,7.581-8.493c2.977,0.671,4.411,5.565,3.205,10.924c-0.796,3.525-2.539,6.372-4.488,7.719
		c-0.069,0.049-0.136,0.1-0.209,0.146c-0.075,0.048-0.148,0.085-0.226,0.128c-2.05,1.182-5.367,1.535-8.896,0.742
		C197.195,69.963,193.394,66.568,194.063,63.592z M86.279,51.514c2.981-0.67,6.375,3.134,7.581,8.493
		c0.037,0.169,0.065,0.339,0.101,0.508c0.165-0.044,0.33-0.09,0.502-0.129c5.359-1.207,10.25,0.226,10.923,3.206
		c0.669,2.977-3.132,6.371-8.492,7.58c-3.529,0.793-6.847,0.439-8.896-0.742c-0.077-0.043-0.15-0.08-0.226-0.128
		c-0.073-0.046-0.14-0.097-0.209-0.146c-1.949-1.347-3.692-4.193-4.488-7.719C81.868,57.079,83.303,52.185,86.279,51.514z
		 M73.241,81.977c2.533-1.706,7.076,0.606,10.146,5.161c0.097,0.145,0.186,0.293,0.278,0.438c0.141-0.102,0.276-0.204,0.422-0.303
		c4.557-3.071,9.633-3.511,11.341-0.979c1.706,2.532-0.605,7.075-5.161,10.146c-3.001,2.019-6.221,2.895-8.56,2.538
		c-0.087-0.014-0.168-0.021-0.255-0.038c-0.086-0.016-0.166-0.04-0.25-0.06c-2.304-0.548-4.961-2.566-6.982-5.563
		C71.149,88.761,70.711,83.683,73.241,81.977z M77.178,125.308c-4.515-3.133-6.766-7.704-5.028-10.214
		c1.742-2.508,6.814-2.004,11.327,1.127c0.143,0.101,0.28,0.206,0.42,0.307c0.092-0.144,0.183-0.289,0.282-0.435
		c3.13-4.516,7.701-6.768,10.212-5.026c2.509,1.739,2.004,6.81-1.127,11.327c-2.062,2.971-4.745,4.953-7.055,5.472
		c-0.083,0.02-0.166,0.04-0.251,0.056c-0.086,0.018-0.169,0.024-0.254,0.036C83.358,128.282,80.149,127.367,77.178,125.308z
		 M105.477,145.486c-0.842,3.517-2.624,6.339-4.587,7.659c-0.071,0.049-0.14,0.098-0.214,0.144
		c-0.073,0.047-0.149,0.084-0.225,0.126c-2.067,1.154-5.389,1.467-8.906,0.625c-5.342-1.279-9.101-4.722-8.391-7.691
		c0.71-2.97,5.618-4.341,10.963-3.061c0.169,0.042,0.335,0.09,0.5,0.134c0.036-0.168,0.066-0.337,0.107-0.508
		c1.277-5.344,4.72-9.101,7.69-8.391C105.384,135.233,106.755,140.143,105.477,145.486z M141.892,139.543V90.708l-3.607,5.619
		c-2.309,3.44-6.884,4.355-10.324,2.046c-3.439-2.31-4.313-6.969-2.004-10.407l17.521-26.061c1.84-2.739,5.096-3.953,8.256-2.994
		c3.157,0.962,5.158,3.874,5.158,7.175v73.457c0,4.143-3.357,7.5-7.5,7.5C145.249,147.043,141.892,143.686,141.892,139.543z
		 M207.904,154.04c-3.518,0.842-6.839,0.529-8.906-0.625c-0.075-0.042-0.151-0.079-0.225-0.126
		c-0.074-0.046-0.143-0.095-0.214-0.144c-1.963-1.32-3.745-4.142-4.587-7.659c-1.278-5.344,0.093-10.253,3.062-10.963
		c2.971-0.71,6.413,3.047,7.69,8.391c0.041,0.171,0.071,0.34,0.107,0.508c0.165-0.044,0.331-0.092,0.5-0.134
		c5.345-1.279,10.253,0.092,10.963,3.061C217.005,149.318,213.246,152.761,207.904,154.04z M213.745,127.957
		c-0.085-0.012-0.168-0.019-0.254-0.036c-0.085-0.016-0.168-0.036-0.251-0.056c-2.31-0.519-4.993-2.501-7.055-5.472
		c-3.131-4.518-3.636-9.588-1.127-11.327c2.511-1.741,7.082,0.511,10.212,5.026c0.1,0.146,0.19,0.291,0.282,0.435
		c0.14-0.101,0.276-0.206,0.42-0.307c4.513-3.131,9.585-3.635,11.327-1.127c1.737,2.51-0.514,7.081-5.028,10.214
		C219.3,127.367,216.091,128.282,213.745,127.957z"/>
</g>
<g>
</g>
<g>
</g>
<g>
</g>
<g>
</g>
<g>
</g>
<g>
</g>
<g>
</g>
<g>
</g>
<g>
</g>
<g>
</g>
<g>
</g>
<g>
</g>
<g>
</g>
<g>
</g>
<g>
</g>
</svg>
