<?xml version="1.0" encoding="iso-8859-1"?>
<!-- Generator: Adobe Illustrator 17.1.0, SVG Export Plug-In . SVG Version: 6.00 Build 0)  -->
<!DOCTYPE svg PUBLIC "-//W3C//DTD SVG 1.1//EN" "http://www.w3.org/Graphics/SVG/1.1/DTD/svg11.dtd">
<svg version="1.1" id="Capa_1" xmlns="http://www.w3.org/2000/svg" xmlns:xlink="http://www.w3.org/1999/xlink" x="0px" y="0px"
	 viewBox="0 0 298.315 298.315" fill="gray" xml:space="preserve">
<g>
	<path d="M281.742,156.48c-2.096-5.085-2.125-13.419-0.065-18.519L297.64,98.43c2.06-5.1-0.756-9.272-6.256-9.272h-39.658
		c10.656,17.979,16.347,38.552,16.347,60c0,19.485-4.697,38.247-13.546,55h36.857c5.5,0,8.286-4.161,6.19-9.246L281.742,156.48z"/>
	<path d="M48.47,89.157H6.931c-5.5,0-8.315,4.173-6.256,9.272l15.963,39.531c2.06,5.1,2.03,13.434-0.065,18.519L0.74,194.911
		c-2.096,5.085,0.69,9.246,6.19,9.246H45.67c-8.85-16.753-13.547-35.515-13.547-55C32.123,127.709,37.814,107.137,48.47,89.157z"/>
	<path d="M253.072,149.157c0-56.873-46.103-102.977-102.976-102.977c-56.871,0-102.974,46.104-102.974,102.977
		s46.103,102.977,102.974,102.977C206.97,252.134,253.072,206.03,253.072,149.157z M200.133,218.32
		c-2.613,1.898-5.708,2.864-8.818,2.864c-2.387,0-4.784-0.569-6.979-1.724l-34.522-18.151l-34.527,18.152
		c-2.195,1.153-4.592,1.723-6.979,1.723c-3.11,0-6.206-0.966-8.819-2.865c-4.619-3.355-6.933-9.044-5.967-14.671l6.597-38.446
		l-27.934-27.226c-4.089-3.985-5.561-9.947-3.796-15.377c1.765-5.431,6.459-9.389,12.109-10.21l38.601-5.607l17.264-34.979
		c2.527-5.12,7.742-8.361,13.451-8.361c5.71,0,10.924,3.241,13.451,8.361l17.263,34.979l38.599,5.607
		c5.65,0.82,10.345,4.778,12.109,10.208c1.765,5.431,0.293,11.392-3.796,15.377l-27.932,27.227l6.593,38.447
		C207.065,209.277,204.752,214.964,200.133,218.32z"/>
	<polygon points="216.97,127.234 170.566,120.493 149.814,78.442 129.06,120.493 82.654,127.234 116.235,159.965 108.306,206.185 
		149.814,184.362 191.316,206.185 183.391,159.965 	"/>
</g>
<g>
</g>
<g>
</g>
<g>
</g>
<g>
</g>
<g>
</g>
<g>
</g>
<g>
</g>
<g>
</g>
<g>
</g>
<g>
</g>
<g>
</g>
<g>
</g>
<g>
</g>
<g>
</g>
<g>
</g>
</svg>
