<?xml version="1.0" encoding="iso-8859-1"?>
<!-- Generator: Adobe Illustrator 17.1.0, SVG Export Plug-In . SVG Version: 6.00 Build 0)  -->
<!DOCTYPE svg PUBLIC "-//W3C//DTD SVG 1.1//EN" "http://www.w3.org/Graphics/SVG/1.1/DTD/svg11.dtd">
<svg version="1.1" id="Capa_1" xmlns="http://www.w3.org/2000/svg" xmlns:xlink="http://www.w3.org/1999/xlink" x="0px" y="0px"
	 viewBox="0 0 296.197 296.197" fill="green" xml:space="preserve">
<g>
	<path d="M140.766,0h-14.667c-5.523,0-10.333,4.279-10.333,9.803v87.354l25,13.144V0z"/>
	<path d="M180.766,96.631V9.803c0-5.523-4.145-9.803-9.667-9.803h-15.333v109.773L180.766,96.631z"/>
	<path d="M206.479,173.348l8.647-50.404c0.966-5.629-1.348-11.316-5.968-14.672c-2.612-1.898-5.708-2.865-8.818-2.865
		c-2.388,0-4.783,0.57-6.979,1.725l-45.264,23.797l-45.26-23.797c-2.194-1.154-4.592-1.725-6.979-1.725
		c-3.11,0-6.205,0.967-8.818,2.865c-4.619,3.355-6.933,9.043-5.968,14.67l8.642,50.406l-36.618,35.693
		c-4.089,3.986-5.561,9.947-3.796,15.377c1.765,5.43,6.459,9.389,12.109,10.209l50.604,7.352l22.633,45.857
		c2.527,5.121,7.741,8.361,13.451,8.361c5.71,0,10.924-3.24,13.451-8.361l22.633-45.857l50.605-7.352
		c5.65-0.82,10.346-4.779,12.109-10.209c1.765-5.43,0.293-11.393-3.796-15.377L206.479,173.348z"/>
</g>
<g>
</g>
<g>
</g>
<g>
</g>
<g>
</g>
<g>
</g>
<g>
</g>
<g>
</g>
<g>
</g>
<g>
</g>
<g>
</g>
<g>
</g>
<g>
</g>
<g>
</g>
<g>
</g>
<g>
</g>
</svg>
