<svg id="Capa_1" enable-background="new 0 0 512 512" height="512" viewBox="0 0 512 512" width="512" xmlns="http://www.w3.org/2000/svg"><g><g><path d="m316.61 441.87h-121.22c-5.579 0-10.102-4.523-10.102-10.102v-12.122c0-5.579 4.523-10.102 10.102-10.102h121.22c5.579 0 10.102 4.523 10.102 10.102v12.122c-.001 5.579-4.523 10.102-10.102 10.102z" fill="#4073c8"/></g><g><path d="m316.61 409.545h-27.274c5.579 0 10.102 4.523 10.102 10.102v12.122c0 5.579-4.523 10.102-10.102 10.102h27.274c5.579 0 10.102-4.523 10.102-10.102v-12.122c-.001-5.58-4.523-10.102-10.102-10.102z" fill="#30579d"/></g><g><path d="m200.441 441.87 7.362 45.644c1.579 9.79 10.029 16.986 19.945 16.986h56.503c9.916 0 18.367-7.197 19.945-16.986l7.362-45.644z" fill="#9dc6fb"/></g><g><path d="m284.285 441.87-7.362 45.644c-1.579 9.79-10.029 16.986-19.945 16.986h27.274c9.916 0 18.366-7.197 19.945-16.986l7.362-45.644z" fill="#80b4fb"/></g><g><path d="m407.524 211.553c0-83.684-67.839-151.523-151.523-151.524-83.523-.001-151.154 67.315-151.525 150.837-.274 61.766 36.413 114.986 89.213 138.836 7.204 3.254 11.802 10.462 11.802 18.367v41.476h101.016v-41.475c0-7.991 4.74-15.166 12.018-18.467 52.489-23.809 88.999-76.662 88.999-138.05z" fill="#f6e266"/></g><g><path d="m355.119 96.942c9.655 21.582 15.029 45.496 15.029 70.668 0 95.679-77.563 173.243-173.243 173.243-7.515 0-14.917-.48-22.179-1.408 6.044 3.848 12.379 7.281 18.964 10.256 7.204 3.254 11.802 10.462 11.802 18.367v41.476h101.016v-41.474c0-7.991 4.74-15.166 12.018-18.467 52.488-23.809 88.998-76.662 88.998-138.051 0-45.784-20.307-86.826-52.405-114.61z" fill="#f1d333"/></g><g><g><circle cx="256" cy="161.045" fill="#f1d0a5" r="50.508"/></g><g><path d="m281.122 117.235c4.253 7.401 6.698 15.973 6.698 25.122 0 27.895-22.613 50.508-50.508 50.508-9.149 0-17.721-2.445-25.122-6.698 8.715 15.165 25.064 25.386 43.81 25.386 27.895 0 50.508-22.613 50.508-50.508 0-18.746-10.221-35.095-25.386-43.81z" fill="#f1b986"/></g><g><path d="m171.146 251.959v44.447h169.707v-44.447c0-22.316-18.091-40.407-40.407-40.407h-88.894c-22.315.001-40.406 18.091-40.406 40.407z" fill="#dd5790"/></g><g><path d="m300.447 211.553h-24.244c22.316 0 40.406 18.091 40.406 40.407v44.447h24.244v-44.447c.001-22.316-18.09-40.407-40.406-40.407z" fill="#da387d"/></g></g><g><path d="m321.628 356.43c56.733-25.74 93.392-82.609 93.392-144.88 0-33.619-10.366-65.754-29.979-92.929-2.424-3.357-7.111-4.117-10.471-1.692-3.359 2.424-4.117 7.112-1.692 10.471 17.756 24.604 27.142 53.703 27.142 84.151 0 56.4-33.203 107.907-84.586 131.219-9.977 4.522-16.424 14.454-16.424 25.301v33.97h-86.02v-33.97c0-10.852-6.362-20.745-16.213-25.205-51.77-23.385-85.055-75.183-84.797-131.962.35-79.057 64.957-143.374 144.02-143.374 34.745 0 68.298 12.543 94.477 35.318 3.125 2.719 7.863 2.391 10.581-.735 2.719-3.125 2.39-7.862-.735-10.581-28.91-25.151-65.959-39.002-104.323-39.002-42.393 0-82.251 16.436-112.232 46.281-29.983 29.847-46.6 69.632-46.788 112.025-.284 62.69 36.465 119.881 93.617 145.697 4.491 2.033 7.394 6.562 7.394 11.537v33.97h-2.6c-9.705 0-17.6 7.9-17.6 17.61v12.12c0 9.249 7.177 16.839 16.251 17.532l6.354 39.403c2.178 13.498 13.682 23.295 27.354 23.295h10.75c4.142 0 7.5-3.358 7.5-7.5s-3.358-7.5-7.5-7.5h-10.75c-6.271 0-11.547-4.494-12.546-10.684l-5.958-36.946h11.754c4.142 0 7.5-3.358 7.5-7.5s-3.358-7.5-7.5-7.5h-25.61c-1.434 0-2.6-1.167-2.6-2.6v-12.12c0-1.439 1.167-2.61 2.6-2.61h121.22c1.434 0 2.6 1.171 2.6 2.61v12.12c0 1.434-1.167 2.6-2.6 2.6h-60.61c-4.142 0-7.5 3.358-7.5 7.5s3.358 7.5 7.5 7.5h46.754l-5.958 36.945c-.999 6.191-6.275 10.685-12.546 10.685h-10.75c-4.142 0-7.5 3.358-7.5 7.5s3.358 7.5 7.5 7.5h10.75c13.672 0 25.176-9.797 27.354-23.296l6.354-39.402c9.075-.693 16.252-8.282 16.252-17.532v-12.12c0-9.71-7.896-17.61-17.6-17.61h-2.6v-33.97c0-4.973 2.99-9.542 7.618-11.64z"/><path d="m163.646 251.959v44.447c0 4.142 3.358 7.5 7.5 7.5h169.707c4.142 0 7.5-3.358 7.5-7.5v-44.447c0-26.416-21.491-47.907-47.906-47.907h-5.565c11.738-10.622 19.126-25.968 19.126-43.008 0-31.986-26.022-58.008-58.008-58.008s-58.008 26.022-58.008 58.008c0 17.04 7.388 32.386 19.126 43.008h-5.565c-26.416.001-47.907 21.491-47.907 47.907zm49.346-90.914c0-23.715 19.293-43.008 43.008-43.008s43.008 19.293 43.008 43.008c0 23.714-19.293 43.008-43.008 43.008s-43.008-19.294-43.008-43.008zm87.455 58.008c18.145 0 32.906 14.762 32.906 32.907v36.947h-27.427v-12.704c0-4.142-3.358-7.5-7.5-7.5s-7.5 3.358-7.5 7.5v12.704h-69.854v-12.704c0-4.142-3.358-7.5-7.5-7.5s-7.5 3.358-7.5 7.5v12.704h-27.427v-36.947c0-18.145 14.762-32.907 32.906-32.907z"/><path d="m256 35.203c4.142 0 7.5-3.358 7.5-7.5v-20.203c0-4.142-3.358-7.5-7.5-7.5s-7.5 3.358-7.5 7.5v20.203c0 4.142 3.358 7.5 7.5 7.5z"/><path d="m157.58 56.084c1.389 2.406 3.91 3.751 6.502 3.751 1.272 0 2.562-.324 3.743-1.006 3.587-2.071 4.816-6.658 2.745-10.245l-10.102-17.497c-2.071-3.587-6.659-4.817-10.245-2.745-3.587 2.071-4.816 6.658-2.745 10.245z"/><path d="m75.535 116.021 17.497 10.102c1.181.682 2.471 1.006 3.743 1.006 2.592 0 5.113-1.346 6.502-3.751 2.071-3.587.842-8.174-2.745-10.245l-17.497-10.102c-3.588-2.072-8.174-.842-10.245 2.745-2.071 3.588-.842 8.175 2.745 10.245z"/><path d="m79.65 211.553c0-4.142-3.358-7.5-7.5-7.5h-20.203c-4.142 0-7.5 3.358-7.5 7.5s3.358 7.5 7.5 7.5h20.203c4.142 0 7.5-3.358 7.5-7.5z"/><path d="m93.032 296.982-17.497 10.102c-3.587 2.071-4.816 6.658-2.745 10.245 1.389 2.406 3.91 3.751 6.502 3.751 1.272 0 2.562-.324 3.743-1.006l17.497-10.102c3.587-2.071 4.816-6.658 2.745-10.245-2.071-3.588-6.658-4.816-10.245-2.745z"/><path d="m344.175 58.83c1.181.682 2.471 1.006 3.743 1.006 2.592 0 5.113-1.346 6.502-3.751l10.102-17.497c2.071-3.587.842-8.174-2.745-10.245-3.587-2.073-8.174-.842-10.245 2.745l-10.102 17.496c-2.072 3.588-.843 8.175 2.745 10.246z"/><path d="m415.225 127.129c1.272 0 2.562-.324 3.743-1.006l17.497-10.102c3.587-2.071 4.816-6.658 2.745-10.245-2.071-3.588-6.659-4.817-10.245-2.745l-17.497 10.102c-3.587 2.071-4.816 6.658-2.745 10.245 1.389 2.406 3.91 3.751 6.502 3.751z"/><path d="m460.053 204.053h-20.203c-4.142 0-7.5 3.358-7.5 7.5s3.358 7.5 7.5 7.5h20.203c4.142 0 7.5-3.358 7.5-7.5s-3.358-7.5-7.5-7.5z"/><path d="m436.465 307.084-17.497-10.102c-3.587-2.072-8.174-.842-10.245 2.745s-.842 8.174 2.745 10.245l17.497 10.102c1.181.682 2.471 1.006 3.743 1.006 2.592 0 5.113-1.346 6.502-3.751 2.071-3.587.842-8.174-2.745-10.245z"/></g></g></svg>