<svg height="512pt" viewBox="0 0 512 512" width="512pt" xmlns="http://www.w3.org/2000/svg"><path d="m256 512c-141.160156 0-256-114.839844-256-256s114.839844-256 256-256 256 114.839844 256 256-114.839844 256-256 256zm0 0" fill="#fe0050"/><path d="m256 0v512c141.160156 0 256-114.839844 256-256s-114.839844-256-256-256zm0 0" fill="#e10555"/><path d="m256 427c-94.289062 0-171-76.710938-171-171s76.710938-171 171-171 171 76.710938 171 171-76.710938 171-171 171zm0 0" fill="#d9e7f3"/><path d="m256 85v342c94.289062 0 171-76.710938 171-171s-76.710938-171-171-171zm0 0" fill="#c8d4df"/><path d="m256 337c-44.664062 0-81-36.335938-81-81s36.335938-81 81-81 81 36.335938 81 81-36.335938 81-81 81zm0 0" fill="#fe0050"/><path d="m256 175v162c44.664062 0 81-36.335938 81-81s-36.335938-81-81-81zm0 0" fill="#e10555"/><path d="m256 271c-3.839844 0-7.679688-1.464844-10.605469-4.394531-5.859375-5.855469-5.859375-15.355469 0-21.210938l110.308594-110.308593c5.855469-5.859376 15.355469-5.859376 21.210937 0 5.859376 5.855468 5.859376 15.351562 0 21.210937l-110.308593 110.308594c-2.925781 2.929687-6.765625 4.394531-10.605469 4.394531zm0 0" fill="#2d2d55"/><path d="m376.914062 135.085938-131.519531 131.519531c2.925781 2.929687 6.765625 4.394531 10.605469 4.394531s7.679688-1.464844 10.605469-4.394531l110.308593-110.308594c5.859376-5.855469 5.859376-15.355469 0-21.210937zm0 0" fill="#0a0a48"/><path d="m425 165.640625c-.417969 0-.839844-.019531-1.261719-.050781l-58.6875-4.949219c-7.289062-.617187-13.074219-6.398437-13.6875-13.6875l-4.953125-58.691406c-.371094-4.402344 1.21875-8.742188 4.34375-11.867188l63.636719-63.636719c4.128906-4.128906 10.277344-5.488281 15.761719-3.480468 5.480468 2.003906 9.300781 7.007812 9.792968 12.824218l3.882813 46.066407 46.070313 3.886719c5.816406.492187 10.820312 4.3125 12.828124 9.796874 2.003907 5.480469.644532 11.628907-3.484374 15.757813l-63.636719 63.636719c-2.824219 2.824218-6.644531 4.394531-10.605469 4.394531zm0 0" fill="#ffc300"/><path d="m489.898438 72.054688-46.066407-3.886719-88.128906 88.128906c2.433594 2.433594 5.699219 4.035156 9.34375 4.34375l58.691406 4.949219c.421875.03125.839844.050781 1.261719.050781 3.960938 0 7.78125-1.570313 10.605469-4.394531l63.636719-63.636719c4.128906-4.128906 5.488281-10.277344 3.484374-15.761719-2.007812-5.480468-7.011718-9.300781-12.828124-9.792968zm0 0" fill="#fab400"/></svg>